M48
INCH
T10C0.086614
T11C0.035000
T12C0.125984
T13C0.042000
T14C0.038000
T15C0.098425
T16C0.036000
%
T10
X016912Y003905
X022912Y019905
X016912Y019905
X003912Y002905
X006912Y019905
X039912Y019905
X039912Y003905
X005667Y014112
X005644Y001284
X044438Y014161
X044469Y001273
X023411Y028414
X035414Y028429
X035413Y015406
T11
X011912Y007905
X007912Y007905
X033912Y010905
X033912Y013905
T12
X037912Y020905
T13
X038912Y013905
X037912Y013905
X036912Y013905
T14
X030912Y014905
X031912Y014905
X032912Y014905
X033912Y014905
X000912Y009905
X001912Y009905
X002912Y009905
X005912Y003905
X005912Y004905
X005912Y005905
T15
X022912Y003905
T16
X022912Y004905
X022912Y005905
X022912Y006905
X022912Y007905
X022912Y008905
X022912Y009905
X022912Y010905
X022912Y011905
X022912Y012905
X022912Y013905
X022912Y014905
X022912Y015905
X022912Y016905
X022912Y017905
X022912Y018905
X016912Y004905
X016912Y005905
X016912Y006905
X016912Y007905
X016912Y008905
X016912Y009905
X016912Y010905
X016912Y011905
X016912Y012905
X016912Y013905
X016912Y014905
X016912Y015905
X016912Y016905
X016912Y017905
X016912Y018905
T00
M30
