G04 MADE WITH FRITZING*
G04 WWW.FRITZING.ORG*
G04 DOUBLE SIDED*
G04 HOLES PLATED*
G04 CONTOUR ON CENTER OF CONTOUR VECTOR*
%ASAXBY*%
%FSLAX23Y23*%
%MOIN*%
%OFA0B0*%
%SFA1.0B1.0*%
%ADD10C,0.078000*%
%ADD11C,0.082000*%
%ADD12C,0.070000*%
%ADD13C,0.075000*%
%ADD14R,0.082000X0.082000*%
%ADD15R,0.069972X0.070000*%
%ADD16R,0.075000X0.075000*%
%ADD17C,0.064000*%
%ADD18C,0.024000*%
%LNCOPPER0*%
G90*
G70*
G54D10*
X3724Y297D03*
X3724Y197D03*
X3724Y97D03*
G54D11*
X3224Y1297D03*
X3124Y1297D03*
X3024Y1297D03*
G54D12*
X1524Y2197D03*
X1524Y2097D03*
X1524Y1997D03*
X1524Y1897D03*
X1524Y1797D03*
X1524Y1697D03*
X1524Y1597D03*
X1524Y1497D03*
X1524Y1397D03*
X1524Y1297D03*
X1524Y1197D03*
X1524Y1097D03*
X1524Y997D03*
X1524Y897D03*
X1524Y797D03*
X2124Y2197D03*
X2124Y2097D03*
X2124Y1997D03*
X2124Y1897D03*
X2124Y1797D03*
X2124Y1697D03*
X2124Y1597D03*
X2124Y1497D03*
X2124Y1397D03*
X2124Y1297D03*
X2124Y1197D03*
X2124Y1097D03*
X2124Y997D03*
X2124Y897D03*
X2124Y797D03*
G54D10*
X1324Y1297D03*
X1324Y1197D03*
X1324Y1097D03*
X424Y2397D03*
X324Y2397D03*
X224Y2397D03*
X124Y2397D03*
X424Y2197D03*
X324Y2197D03*
X224Y2197D03*
X124Y2197D03*
X3724Y1197D03*
X3724Y1297D03*
X3374Y1947D03*
X3374Y1847D03*
X3374Y1747D03*
G54D13*
X3474Y1197D03*
X3474Y1297D03*
X2774Y1197D03*
X2774Y1297D03*
G54D12*
X2524Y1297D03*
X2624Y1297D03*
G54D13*
X724Y1097D03*
X1024Y1097D03*
X724Y997D03*
X1024Y997D03*
X724Y897D03*
X1024Y897D03*
X724Y1997D03*
X1024Y1997D03*
X724Y1897D03*
X1024Y1897D03*
X724Y1797D03*
X1024Y1797D03*
X724Y797D03*
X1024Y797D03*
X724Y697D03*
X1024Y697D03*
X724Y597D03*
X1024Y597D03*
X2724Y1747D03*
X2424Y1747D03*
X2724Y1847D03*
X2424Y1847D03*
X2724Y1947D03*
X2424Y1947D03*
X424Y1097D03*
X524Y1097D03*
X499Y1997D03*
X599Y1997D03*
X424Y797D03*
X524Y797D03*
X3024Y1847D03*
X2924Y1847D03*
G54D11*
X724Y1197D03*
X426Y1197D03*
X724Y2197D03*
X1022Y2197D03*
X324Y897D03*
X324Y1195D03*
X2924Y1947D03*
X3222Y1947D03*
G54D10*
X424Y1497D03*
X424Y1397D03*
X424Y1597D03*
X424Y1697D03*
G54D13*
X2224Y797D03*
X2424Y797D03*
G54D14*
X3224Y1297D03*
G54D15*
X1524Y2197D03*
G54D16*
X3474Y1197D03*
X2774Y1197D03*
X724Y1097D03*
X724Y1997D03*
X724Y797D03*
X2724Y1747D03*
G54D14*
X725Y1197D03*
X723Y2197D03*
X324Y896D03*
X2923Y1947D03*
G54D17*
X124Y2250D02*
X124Y2345D01*
D02*
X224Y2250D02*
X224Y2345D01*
D02*
X324Y2250D02*
X324Y2345D01*
D02*
X424Y2250D02*
X424Y2345D01*
D02*
X3524Y1297D02*
X3671Y1297D01*
D02*
X3278Y1297D02*
X3423Y1297D01*
D02*
X3524Y1197D02*
X3671Y1197D01*
D02*
X3123Y1196D02*
X3423Y1197D01*
D02*
X1025Y2399D02*
X476Y2397D01*
D02*
X1023Y2252D02*
X1025Y2399D01*
D02*
X2824Y1297D02*
X2969Y1297D01*
D02*
X3123Y1196D02*
X3123Y1243D01*
D02*
X3123Y1196D02*
X2824Y1197D01*
D02*
X3024Y1648D02*
X3024Y1352D01*
D02*
X3323Y1733D02*
X3024Y1648D01*
D02*
X2624Y2197D02*
X2624Y1346D01*
D02*
X2723Y1297D02*
X2672Y1297D01*
D02*
X2524Y1198D02*
X2524Y1249D01*
D02*
X2723Y1197D02*
X2524Y1198D01*
D02*
X2175Y2197D02*
X2624Y2197D01*
D02*
X2525Y1947D02*
X2524Y1346D01*
D02*
X2474Y1947D02*
X2525Y1947D01*
D02*
X2425Y2099D02*
X2424Y1998D01*
D02*
X2175Y2097D02*
X2425Y2099D01*
D02*
X2323Y1847D02*
X2373Y1847D01*
D02*
X2321Y596D02*
X2323Y1847D01*
D02*
X1822Y596D02*
X2321Y596D01*
D02*
X1822Y1799D02*
X1822Y596D01*
D02*
X1575Y1798D02*
X1822Y1799D01*
D02*
X1473Y1602D02*
X476Y1693D01*
D02*
X1473Y1493D02*
X476Y1402D01*
D02*
X1376Y1297D02*
X1472Y1297D01*
D02*
X1472Y1197D02*
X1376Y1197D01*
D02*
X1472Y1097D02*
X1376Y1097D01*
G54D18*
D02*
X424Y1567D02*
X424Y1527D01*
G54D17*
D02*
X2075Y2081D02*
X1572Y1913D01*
D02*
X3824Y1196D02*
X3776Y1197D01*
D02*
X3824Y1947D02*
X3824Y1196D01*
D02*
X3426Y1947D02*
X3824Y1947D01*
D02*
X2923Y1748D02*
X2774Y1747D01*
D02*
X2923Y1796D02*
X2923Y1748D01*
D02*
X2924Y1898D02*
X2924Y1893D01*
D02*
X3321Y1947D02*
X3276Y1947D01*
D02*
X673Y1997D02*
X649Y1997D01*
D02*
X724Y2048D02*
X724Y2143D01*
D02*
X1071Y1878D02*
X1476Y1716D01*
D02*
X673Y1097D02*
X574Y1097D01*
D02*
X724Y1148D02*
X724Y1143D01*
D02*
X526Y897D02*
X525Y848D01*
D02*
X378Y897D02*
X526Y897D01*
D02*
X574Y797D02*
X673Y797D01*
D02*
X325Y2096D02*
X454Y2022D01*
D02*
X324Y2145D02*
X325Y2096D01*
D02*
X225Y1097D02*
X373Y1097D01*
D02*
X224Y2145D02*
X225Y1097D01*
D02*
X1074Y997D02*
X1472Y997D01*
D02*
X1071Y716D02*
X1476Y878D01*
D02*
X125Y797D02*
X373Y797D01*
D02*
X124Y2145D02*
X125Y797D01*
D02*
X371Y1196D02*
X378Y1196D01*
D02*
X917Y1893D02*
X986Y1831D01*
D02*
X1480Y1924D02*
X1068Y2169D01*
D02*
X923Y2096D02*
X984Y2158D01*
D02*
X917Y1893D02*
X923Y2096D01*
D02*
X324Y1297D02*
X324Y1250D01*
D02*
X321Y1502D02*
X324Y1297D01*
D02*
X371Y1500D02*
X321Y1502D01*
D02*
X325Y1899D02*
X673Y1897D01*
D02*
X321Y1502D02*
X325Y1899D01*
D02*
X917Y1893D02*
X774Y1896D01*
D02*
X825Y999D02*
X774Y998D01*
D02*
X825Y1297D02*
X825Y999D01*
D02*
X324Y1297D02*
X825Y1297D01*
D02*
X825Y999D02*
X978Y920D01*
D02*
X825Y697D02*
X774Y697D01*
D02*
X825Y999D02*
X825Y697D01*
D02*
X825Y697D02*
X978Y620D01*
D02*
X3223Y2146D02*
X2822Y2146D01*
D02*
X2822Y2146D02*
X2822Y1848D01*
D02*
X2822Y1848D02*
X2774Y1848D01*
D02*
X3222Y2002D02*
X3223Y2146D01*
D02*
X3074Y1847D02*
X3321Y1847D01*
D02*
X1373Y99D02*
X1373Y699D01*
D02*
X1373Y699D02*
X1499Y781D01*
D02*
X3694Y97D02*
X1373Y99D01*
D02*
X1674Y1396D02*
X1553Y1397D01*
D02*
X1674Y199D02*
X1674Y1396D01*
D02*
X3694Y197D02*
X1674Y199D01*
D02*
X2191Y797D02*
X2153Y797D01*
D02*
X3694Y297D02*
X2425Y299D01*
D02*
X2425Y299D02*
X2424Y765D01*
G04 End of Copper0*
M02*