G04 MADE WITH FRITZING*
G04 WWW.FRITZING.ORG*
G04 DOUBLE SIDED*
G04 HOLES PLATED*
G04 CONTOUR ON CENTER OF CONTOUR VECTOR*
%ASAXBY*%
%FSLAX23Y23*%
%MOIN*%
%OFA0B0*%
%SFA1.0B1.0*%
%ADD10C,0.075000*%
%ADD11C,0.082000*%
%ADD12C,0.078000*%
%ADD13C,0.070000*%
%ADD14R,0.082000X0.082000*%
%ADD15R,0.069972X0.070000*%
%ADD16C,0.064000*%
%LNCOPPER0*%
G90*
G70*
G54D10*
X3391Y1391D03*
X3391Y1091D03*
G54D11*
X3691Y1391D03*
X3791Y1391D03*
X3891Y1391D03*
G54D12*
X591Y591D03*
X591Y491D03*
X591Y391D03*
X291Y991D03*
X191Y991D03*
X91Y991D03*
G54D10*
X791Y791D03*
X1191Y791D03*
G54D12*
X3391Y1491D03*
X3291Y1491D03*
X3191Y1491D03*
X3091Y1491D03*
G54D13*
X1691Y1891D03*
X1691Y1791D03*
X1691Y1691D03*
X1691Y1591D03*
X1691Y1491D03*
X1691Y1391D03*
X1691Y1291D03*
X1691Y1191D03*
X1691Y1091D03*
X1691Y991D03*
X1691Y891D03*
X1691Y791D03*
X1691Y691D03*
X1691Y591D03*
X1691Y491D03*
X2291Y1891D03*
X2291Y1791D03*
X2291Y1691D03*
X2291Y1591D03*
X2291Y1491D03*
X2291Y1391D03*
X2291Y1291D03*
X2291Y1191D03*
X2291Y1091D03*
X2291Y991D03*
X2291Y891D03*
X2291Y791D03*
X2291Y691D03*
X2291Y591D03*
X2291Y491D03*
G54D14*
X3691Y1391D03*
G54D15*
X1691Y1891D03*
G54D16*
X3492Y2090D02*
X3893Y1688D01*
D02*
X3893Y1688D02*
X3892Y1445D01*
D02*
X3732Y1095D02*
X3446Y1091D01*
D02*
X3891Y1091D02*
X3732Y1095D01*
D02*
X3891Y1336D02*
X3891Y1091D01*
D02*
X3391Y1438D02*
X3391Y1445D01*
D02*
X3492Y1891D02*
X2343Y1891D01*
D02*
X3691Y1445D02*
X3690Y1688D01*
D02*
X3690Y1688D02*
X3492Y1891D01*
D02*
X891Y591D02*
X644Y591D01*
D02*
X893Y2091D02*
X891Y591D01*
D02*
X3492Y2090D02*
X893Y2091D01*
D02*
X1090Y392D02*
X1090Y991D01*
D02*
X644Y391D02*
X1090Y392D01*
D02*
X993Y1591D02*
X993Y489D01*
D02*
X993Y489D02*
X644Y490D01*
D02*
X1640Y1591D02*
X993Y1591D01*
D02*
X2243Y1774D02*
X1740Y1607D01*
D02*
X3790Y1192D02*
X3290Y1192D01*
D02*
X3791Y1336D02*
X3790Y1192D01*
D02*
X290Y591D02*
X539Y591D01*
D02*
X291Y938D02*
X290Y591D01*
D02*
X90Y491D02*
X539Y491D01*
D02*
X91Y938D02*
X90Y491D01*
D02*
X1640Y791D02*
X1246Y791D01*
D02*
X791Y1090D02*
X791Y845D01*
D02*
X191Y1090D02*
X791Y1090D01*
D02*
X191Y1043D02*
X191Y1090D01*
D02*
X1090Y991D02*
X1640Y991D01*
D02*
X3290Y1192D02*
X3291Y1438D01*
D02*
X3293Y1788D02*
X3292Y1543D01*
D02*
X2343Y1790D02*
X3293Y1788D01*
D02*
X3091Y290D02*
X1889Y290D01*
D02*
X1889Y290D02*
X1889Y891D01*
D02*
X1889Y891D02*
X1743Y891D01*
D02*
X3091Y1438D02*
X3091Y290D01*
G04 End of Copper0*
M02*