G04 MADE WITH FRITZING*
G04 WWW.FRITZING.ORG*
G04 DOUBLE SIDED*
G04 HOLES PLATED*
G04 CONTOUR ON CENTER OF CONTOUR VECTOR*
%ASAXBY*%
%FSLAX23Y23*%
%MOIN*%
%OFA0B0*%
%SFA1.0B1.0*%
%ADD10C,0.096614*%
%ADD11C,0.085000*%
%ADD12C,0.135984*%
%ADD13C,0.092000*%
%ADD14C,0.088000*%
%ADD15C,0.108425*%
%ADD16C,0.080000*%
%ADD17R,0.092000X0.092000*%
%ADD18R,0.079972X0.080000*%
%LNMASK0*%
G90*
G70*
G54D10*
X3541Y1541D03*
X3541Y2843D03*
X2341Y2841D03*
X4447Y127D03*
X4444Y1416D03*
X564Y128D03*
X567Y1411D03*
G54D11*
X3391Y1391D03*
X3391Y1091D03*
G54D12*
X3791Y2091D03*
G54D10*
X3991Y391D03*
X3991Y1991D03*
X691Y1991D03*
X391Y291D03*
G54D13*
X3691Y1391D03*
X3791Y1391D03*
X3891Y1391D03*
G54D14*
X591Y591D03*
X591Y491D03*
X591Y391D03*
X291Y991D03*
X191Y991D03*
X91Y991D03*
G54D11*
X791Y791D03*
X1191Y791D03*
G54D14*
X3391Y1491D03*
X3291Y1491D03*
X3191Y1491D03*
X3091Y1491D03*
G54D15*
X2291Y391D03*
G54D16*
X1691Y1891D03*
X1691Y1791D03*
X1691Y1691D03*
X1691Y1591D03*
X1691Y1491D03*
X1691Y1391D03*
X1691Y1291D03*
X1691Y1191D03*
X1691Y1091D03*
X1691Y991D03*
X1691Y891D03*
X1691Y791D03*
X1691Y691D03*
X1691Y591D03*
X1691Y491D03*
X2291Y1891D03*
X2291Y1791D03*
X2291Y1691D03*
X2291Y1591D03*
X2291Y1491D03*
X2291Y1391D03*
X2291Y1291D03*
X2291Y1191D03*
X2291Y1091D03*
X2291Y991D03*
X2291Y891D03*
X2291Y791D03*
X2291Y691D03*
X2291Y591D03*
X2291Y491D03*
G54D10*
X1691Y1991D03*
X2291Y1991D03*
X1691Y391D03*
G54D17*
X3691Y1391D03*
G54D18*
X1691Y1891D03*
G04 End of Mask0*
M02*