M48
INCH
T10C0.035000
T11C0.038000
T12C0.125984
T13C0.086614
T14C0.042000
T15C0.098425
T16C0.036000
T17C0.030000
%
T10
X030700Y018732
X031700Y018732
X003700Y008233
X002700Y008233
X003700Y014733
X002700Y014733
X006200Y011233
X005200Y011233
X024700Y019732
X027700Y019732
X024700Y018732
X027700Y018732
X024700Y017732
X027700Y017732
X010700Y006233
X007700Y006233
X010700Y007233
X007700Y007233
X010700Y008233
X007700Y008233
X010700Y012233
X007700Y012233
X010700Y013233
X007700Y013233
X010700Y014233
X007700Y014233
X010700Y009233
X007700Y009233
X010700Y010233
X007700Y010233
X010700Y011233
X007700Y011233
X028200Y013233
X028200Y012233
X035200Y013233
X035200Y012233
X024700Y008233
X022700Y008233
T11
X012700Y017233
X012700Y016233
X012700Y014233
X012700Y015233
X035700Y017732
X035700Y018732
X035700Y019732
X037700Y013233
X037700Y012233
X000700Y022232
X001700Y022232
X002700Y022232
X003700Y022232
X000700Y024232
X001700Y024232
X002700Y024232
X003700Y024232
X014700Y011233
X014700Y012233
X014700Y013233
X037700Y001232
X037700Y002232
X037700Y003232
T12
X031700Y007233
T13
X015700Y007233
X015700Y023233
X021700Y023233
X002700Y006233
X005700Y023233
X038700Y023233
X038700Y007233
T14
X033680Y019732
X030700Y019732
X002700Y012213
X002700Y009233
X008680Y015732
X005700Y015732
X003220Y012233
X006200Y012233
X030700Y013233
X031700Y013233
X032700Y013233
T15
X021700Y007233
T16
X021700Y008233
X021700Y009233
X021700Y010233
X021700Y011233
X021700Y012233
X021700Y013233
X021700Y014233
X021700Y015233
X021700Y016232
X021700Y017232
X021700Y018232
X021700Y019232
X021700Y020232
X021700Y021232
X021700Y022232
X015700Y008233
X015700Y009233
X015700Y010233
X015700Y011233
X015700Y012233
X015700Y013233
X015700Y014233
X015700Y015233
X015700Y016232
X015700Y017232
X015700Y018232
X015700Y019232
X015700Y020232
X015700Y021232
X015700Y022232
T17
X026702Y013233
X025700Y013233
T00
M30
