M48
INCH
T10C0.038000
T11C0.125984
T12C0.086614
T13C0.042000
T14C0.098425
T15C0.036000
T16C0.035000
T17C0.030000
%
T10
X004236Y016972
X004236Y015972
X004236Y013972
X004236Y014972
X033736Y017472
X033736Y018472
X033736Y019472
X037236Y012972
X037236Y011972
X001236Y021972
X002236Y021972
X003236Y021972
X004236Y021972
X001236Y023972
X002236Y023972
X003236Y023972
X004236Y023972
X013236Y010972
X013236Y011972
X013236Y012972
X037236Y000972
X037236Y001972
X037236Y002972
T11
X031236Y006972
T12
X015236Y006972
X015236Y022972
X021236Y022972
X002236Y005972
X005236Y022972
X038236Y022972
X038236Y006972
T13
X032216Y019472
X029236Y019472
X003236Y011952
X003236Y008972
X010216Y021972
X007236Y021972
X004256Y011972
X007236Y011972
X030236Y012972
X031236Y012972
X032236Y012972
T14
X021236Y006972
T15
X021236Y007972
X021236Y008972
X021236Y009972
X021236Y010972
X021236Y011972
X021236Y012972
X021236Y013972
X021236Y014972
X021236Y015972
X021236Y016972
X021236Y017972
X021236Y018972
X021236Y019972
X021236Y020972
X021236Y021972
X015236Y007972
X015236Y008972
X015236Y009972
X015236Y010972
X015236Y011972
X015236Y012972
X015236Y013972
X015236Y014972
X015236Y015972
X015236Y016972
X015236Y017972
X015236Y018972
X015236Y019972
X015236Y020972
X015236Y021972
T16
X024236Y007972
X022236Y007972
X029236Y018472
X030236Y018472
X005236Y007972
X004236Y007972
X005986Y019972
X004986Y019972
X005236Y010972
X004236Y010972
X024236Y019472
X027236Y019472
X024236Y018472
X027236Y018472
X024236Y017472
X027236Y017472
X010236Y005972
X007236Y005972
X010236Y006972
X007236Y006972
X010236Y007972
X007236Y007972
X010236Y017972
X007236Y017972
X010236Y018972
X007236Y018972
X010236Y019972
X007236Y019972
X010236Y008972
X007236Y008972
X010236Y009972
X007236Y009972
X010236Y010972
X007236Y010972
X027736Y012972
X027736Y011972
X034736Y012972
X034736Y011972
T17
X026238Y012972
X025236Y012972
T00
M30
