G04 MADE WITH FRITZING*
G04 WWW.FRITZING.ORG*
G04 DOUBLE SIDED*
G04 HOLES PLATED*
G04 CONTOUR ON CENTER OF CONTOUR VECTOR*
%ASAXBY*%
%FSLAX23Y23*%
%MOIN*%
%OFA0B0*%
%SFA1.0B1.0*%
%ADD10C,0.078000*%
%ADD11C,0.082000*%
%ADD12C,0.070000*%
%ADD13C,0.075000*%
%ADD14R,0.082000X0.082000*%
%ADD15R,0.069972X0.070000*%
%ADD16R,0.075000X0.075000*%
%LNCOPPER1*%
G90*
G70*
G54D10*
X3724Y297D03*
X3724Y197D03*
X3724Y97D03*
G54D11*
X3224Y1297D03*
X3124Y1297D03*
X3024Y1297D03*
G54D12*
X1524Y2197D03*
X1524Y2097D03*
X1524Y1997D03*
X1524Y1897D03*
X1524Y1797D03*
X1524Y1697D03*
X1524Y1597D03*
X1524Y1497D03*
X1524Y1397D03*
X1524Y1297D03*
X1524Y1197D03*
X1524Y1097D03*
X1524Y997D03*
X1524Y897D03*
X1524Y797D03*
X2124Y2197D03*
X2124Y2097D03*
X2124Y1997D03*
X2124Y1897D03*
X2124Y1797D03*
X2124Y1697D03*
X2124Y1597D03*
X2124Y1497D03*
X2124Y1397D03*
X2124Y1297D03*
X2124Y1197D03*
X2124Y1097D03*
X2124Y997D03*
X2124Y897D03*
X2124Y797D03*
G54D10*
X1324Y1297D03*
X1324Y1197D03*
X1324Y1097D03*
X424Y2397D03*
X324Y2397D03*
X224Y2397D03*
X124Y2397D03*
X424Y2197D03*
X324Y2197D03*
X224Y2197D03*
X124Y2197D03*
X3724Y1197D03*
X3724Y1297D03*
X3374Y1947D03*
X3374Y1847D03*
X3374Y1747D03*
G54D13*
X3474Y1197D03*
X3474Y1297D03*
X2774Y1197D03*
X2774Y1297D03*
G54D12*
X2524Y1297D03*
X2624Y1297D03*
G54D13*
X724Y1097D03*
X1024Y1097D03*
X724Y997D03*
X1024Y997D03*
X724Y897D03*
X1024Y897D03*
X724Y1997D03*
X1024Y1997D03*
X724Y1897D03*
X1024Y1897D03*
X724Y1797D03*
X1024Y1797D03*
X724Y797D03*
X1024Y797D03*
X724Y697D03*
X1024Y697D03*
X724Y597D03*
X1024Y597D03*
X2724Y1747D03*
X2424Y1747D03*
X2724Y1847D03*
X2424Y1847D03*
X2724Y1947D03*
X2424Y1947D03*
X424Y1097D03*
X524Y1097D03*
X499Y1997D03*
X599Y1997D03*
X424Y797D03*
X524Y797D03*
X3024Y1847D03*
X2924Y1847D03*
G54D11*
X724Y1197D03*
X426Y1197D03*
X724Y2197D03*
X1022Y2197D03*
X324Y897D03*
X324Y1195D03*
X2924Y1947D03*
X3222Y1947D03*
G54D10*
X424Y1497D03*
X424Y1397D03*
X424Y1597D03*
X424Y1697D03*
G54D13*
X2224Y797D03*
X2424Y797D03*
G54D14*
X3224Y1297D03*
G54D15*
X1524Y2197D03*
G54D16*
X3474Y1197D03*
X2774Y1197D03*
X724Y1097D03*
X724Y1997D03*
X724Y797D03*
X2724Y1747D03*
G54D14*
X725Y1197D03*
X723Y2197D03*
X324Y896D03*
X2923Y1947D03*
G04 End of Copper1*
M02*