G04 MADE WITH FRITZING*
G04 WWW.FRITZING.ORG*
G04 DOUBLE SIDED*
G04 HOLES PLATED*
G04 CONTOUR ON CENTER OF CONTOUR VECTOR*
%ASAXBY*%
%FSLAX23Y23*%
%MOIN*%
%OFA0B0*%
%SFA1.0B1.0*%
%ADD10C,0.088000*%
%ADD11C,0.135984*%
%ADD12C,0.096614*%
%ADD13C,0.092000*%
%ADD14C,0.108425*%
%ADD15C,0.080000*%
%ADD16C,0.085000*%
%ADD17R,0.092000X0.092000*%
%ADD18R,0.079972X0.080000*%
%ADD19R,0.085000X0.085000*%
%LNMASK0*%
G90*
G70*
G54D10*
X3724Y297D03*
X3724Y197D03*
X3724Y97D03*
G54D11*
X3124Y697D03*
G54D12*
X3824Y697D03*
X3824Y2297D03*
X524Y2297D03*
X224Y597D03*
G54D13*
X3224Y1297D03*
X3124Y1297D03*
X3024Y1297D03*
G54D12*
X2124Y2297D03*
X1524Y2297D03*
X1524Y697D03*
G54D14*
X2124Y697D03*
G54D15*
X1524Y2197D03*
X1524Y2097D03*
X1524Y1997D03*
X1524Y1897D03*
X1524Y1797D03*
X1524Y1697D03*
X1524Y1597D03*
X1524Y1497D03*
X1524Y1397D03*
X1524Y1297D03*
X1524Y1197D03*
X1524Y1097D03*
X1524Y997D03*
X1524Y897D03*
X1524Y797D03*
X2124Y2197D03*
X2124Y2097D03*
X2124Y1997D03*
X2124Y1897D03*
X2124Y1797D03*
X2124Y1697D03*
X2124Y1597D03*
X2124Y1497D03*
X2124Y1397D03*
X2124Y1297D03*
X2124Y1197D03*
X2124Y1097D03*
X2124Y997D03*
X2124Y897D03*
X2124Y797D03*
G54D10*
X1324Y1297D03*
X1324Y1197D03*
X1324Y1097D03*
X424Y2397D03*
X324Y2397D03*
X224Y2397D03*
X124Y2397D03*
X424Y2197D03*
X324Y2197D03*
X224Y2197D03*
X124Y2197D03*
X3724Y1197D03*
X3724Y1297D03*
X3374Y1947D03*
X3374Y1847D03*
X3374Y1747D03*
G54D16*
X3474Y1197D03*
X3474Y1297D03*
X2774Y1197D03*
X2774Y1297D03*
G54D15*
X2524Y1297D03*
X2624Y1297D03*
G54D16*
X724Y1097D03*
X1024Y1097D03*
X724Y997D03*
X1024Y997D03*
X724Y897D03*
X1024Y897D03*
X724Y1997D03*
X1024Y1997D03*
X724Y1897D03*
X1024Y1897D03*
X724Y1797D03*
X1024Y1797D03*
X724Y797D03*
X1024Y797D03*
X724Y697D03*
X1024Y697D03*
X724Y597D03*
X1024Y597D03*
X2724Y1747D03*
X2424Y1747D03*
X2724Y1847D03*
X2424Y1847D03*
X2724Y1947D03*
X2424Y1947D03*
X424Y1097D03*
X524Y1097D03*
X499Y1997D03*
X599Y1997D03*
X424Y797D03*
X524Y797D03*
X3024Y1847D03*
X2924Y1847D03*
G54D13*
X724Y1197D03*
X426Y1197D03*
X724Y2197D03*
X1022Y2197D03*
X324Y897D03*
X324Y1195D03*
X2924Y1947D03*
X3222Y1947D03*
G54D10*
X424Y1497D03*
X424Y1397D03*
X424Y1597D03*
X424Y1697D03*
G54D16*
X2224Y797D03*
X2424Y797D03*
G54D17*
X3224Y1297D03*
G54D18*
X1524Y2197D03*
G54D19*
X3474Y1197D03*
X2774Y1197D03*
X724Y1097D03*
X724Y1997D03*
X724Y797D03*
X2724Y1747D03*
G54D17*
X725Y1197D03*
X723Y2197D03*
X324Y896D03*
X2923Y1947D03*
G04 End of Mask0*
M02*